<svg width="28" height="23" viewBox="0 0 28 23" fill="none" xmlns="http://www.w3.org/2000/svg">
<path d="M23.7187 2.24787C21.9062 1.39985 19.9682 0.783547 17.942 0.432617C17.6932 0.882496 17.4025 1.48759 17.2021 1.96895C15.0482 1.64504 12.9142 1.64504 10.8 1.96895C10.5996 1.48759 10.3023 0.882496 10.0513 0.432617C8.02294 0.783547 6.08272 1.40212 4.27023 2.25236C0.614417 7.77677 -0.376613 13.164 0.118903 18.4746C2.54363 20.2854 4.89348 21.3853 7.20367 22.1051C7.77407 21.3201 8.28279 20.4856 8.72104 19.6061C7.88638 19.2889 7.08695 18.8975 6.33159 18.4432C6.53198 18.2947 6.728 18.1395 6.91738 17.9798C11.5246 20.1347 16.5304 20.1347 21.0825 17.9798C21.2741 18.1395 21.4701 18.2947 21.6683 18.4432C20.9107 18.8998 20.1091 19.2912 19.2745 19.6083C19.7127 20.4856 20.2192 21.3223 20.7918 22.1073C23.1042 21.3876 25.4563 20.2876 27.881 18.4746C28.4624 12.3182 26.8878 6.98049 23.7187 2.24787ZM9.34871 15.2086C7.96568 15.2086 6.83148 13.9175 6.83148 12.3452C6.83148 10.7729 7.94146 9.47952 9.34871 9.47952C10.756 9.47952 11.8902 10.7706 11.8659 12.3452C11.8681 13.9175 10.756 15.2086 9.34871 15.2086ZM18.6512 15.2086C17.2682 15.2086 16.134 13.9175 16.134 12.3452C16.134 10.7729 17.2439 9.47952 18.6512 9.47952C20.0584 9.47952 21.1926 10.7706 21.1684 12.3452C21.1684 13.9175 20.0584 15.2086 18.6512 15.2086Z" fill="#111827"/>
</svg>
